<mxfile host="app.diagrams.net" modified="2021-07-04T08:42:29.231Z" agent="5.0 (Macintosh; Intel Mac OS X 10_14_1) AppleWebKit/537.36 (KHTML, like Gecko) Chrome/91.0.4472.114 Safari/537.36" etag="8RoBuPn_SbJkc69ab04D" version="14.8.0" type="github">
  <diagram id="r0lZ6PcfNRcoaRvH1TT-" name="Page-1">
    <mxGraphModel dx="1026" dy="457" grid="1" gridSize="10" guides="1" tooltips="1" connect="1" arrows="1" fold="1" page="1" pageScale="1" pageWidth="850" pageHeight="1100" math="0" shadow="0">
      <root>
        <mxCell id="0" />
        <mxCell id="1" parent="0" />
        <mxCell id="302I41bybHosBHLhknnt-5" style="edgeStyle=orthogonalEdgeStyle;rounded=0;orthogonalLoop=1;jettySize=auto;html=1;exitX=0.5;exitY=1;exitDx=0;exitDy=0;" edge="1" parent="1" source="302I41bybHosBHLhknnt-1" target="302I41bybHosBHLhknnt-2">
          <mxGeometry relative="1" as="geometry" />
        </mxCell>
        <mxCell id="302I41bybHosBHLhknnt-1" value="用户" style="rounded=1;whiteSpace=wrap;html=1;" vertex="1" parent="1">
          <mxGeometry x="310" y="110" width="120" height="60" as="geometry" />
        </mxCell>
        <mxCell id="302I41bybHosBHLhknnt-6" style="edgeStyle=orthogonalEdgeStyle;rounded=0;orthogonalLoop=1;jettySize=auto;html=1;entryX=0.5;entryY=0;entryDx=0;entryDy=0;" edge="1" parent="1" source="302I41bybHosBHLhknnt-2" target="302I41bybHosBHLhknnt-3">
          <mxGeometry relative="1" as="geometry" />
        </mxCell>
        <mxCell id="302I41bybHosBHLhknnt-2" value="IM Kit" style="rounded=1;whiteSpace=wrap;html=1;" vertex="1" parent="1">
          <mxGeometry x="310" y="210" width="120" height="60" as="geometry" />
        </mxCell>
        <mxCell id="302I41bybHosBHLhknnt-7" style="edgeStyle=orthogonalEdgeStyle;rounded=0;orthogonalLoop=1;jettySize=auto;html=1;exitX=0.5;exitY=1;exitDx=0;exitDy=0;entryX=0.5;entryY=0;entryDx=0;entryDy=0;" edge="1" parent="1" source="302I41bybHosBHLhknnt-3" target="302I41bybHosBHLhknnt-4">
          <mxGeometry relative="1" as="geometry" />
        </mxCell>
        <mxCell id="302I41bybHosBHLhknnt-3" value="IM Lib" style="rounded=1;whiteSpace=wrap;html=1;" vertex="1" parent="1">
          <mxGeometry x="310" y="310" width="120" height="60" as="geometry" />
        </mxCell>
        <mxCell id="302I41bybHosBHLhknnt-10" style="edgeStyle=orthogonalEdgeStyle;rounded=0;orthogonalLoop=1;jettySize=auto;html=1;entryX=0.5;entryY=0;entryDx=0;entryDy=0;" edge="1" parent="1" source="302I41bybHosBHLhknnt-4" target="302I41bybHosBHLhknnt-8">
          <mxGeometry relative="1" as="geometry" />
        </mxCell>
        <mxCell id="302I41bybHosBHLhknnt-11" style="edgeStyle=orthogonalEdgeStyle;rounded=0;orthogonalLoop=1;jettySize=auto;html=1;" edge="1" parent="1" source="302I41bybHosBHLhknnt-4" target="302I41bybHosBHLhknnt-9">
          <mxGeometry relative="1" as="geometry" />
        </mxCell>
        <mxCell id="302I41bybHosBHLhknnt-4" value="Repository" style="rounded=1;whiteSpace=wrap;html=1;" vertex="1" parent="1">
          <mxGeometry x="310" y="410" width="120" height="60" as="geometry" />
        </mxCell>
        <mxCell id="302I41bybHosBHLhknnt-8" value="SQLite" style="rounded=1;whiteSpace=wrap;html=1;" vertex="1" parent="1">
          <mxGeometry x="180" y="510" width="120" height="60" as="geometry" />
        </mxCell>
        <mxCell id="302I41bybHosBHLhknnt-9" value="Remote data source" style="rounded=1;whiteSpace=wrap;html=1;" vertex="1" parent="1">
          <mxGeometry x="480" y="510" width="120" height="60" as="geometry" />
        </mxCell>
      </root>
    </mxGraphModel>
  </diagram>
</mxfile>
